<?xml version="1.0" encoding="UTF-8" standalone="no"?>
<svg
   width="159.67999"
   height="150"
   viewBox="0 0 159.67999 150"
   fill="none"
   version="1.1"
   id="svg314"
   sodipodi:docname="logo-square.svg"
   xml:space="preserve"
   inkscape:version="1.3.2 (091e20ef0f, 2023-11-25, custom)"
   inkscape:export-filename="logo.png"
   inkscape:export-xdpi="270.25565"
   inkscape:export-ydpi="270.25565"
   xmlns:inkscape="http://www.inkscape.org/namespaces/inkscape"
   xmlns:sodipodi="http://sodipodi.sourceforge.net/DTD/sodipodi-0.dtd"
   xmlns="http://www.w3.org/2000/svg"
   xmlns:svg="http://www.w3.org/2000/svg"><defs
     id="defs314" /><sodipodi:namedview
     id="namedview314"
     pagecolor="#ffffff"
     bordercolor="#000000"
     borderopacity="0.25"
     inkscape:showpageshadow="2"
     inkscape:pageopacity="0.0"
     inkscape:pagecheckerboard="0"
     inkscape:deskcolor="#d1d1d1"
     showgrid="false"
     showguides="true"
     inkscape:zoom="1.0083333"
     inkscape:cx="260.82645"
     inkscape:cy="66.446281"
     inkscape:window-width="3440"
     inkscape:window-height="1416"
     inkscape:window-x="0"
     inkscape:window-y="0"
     inkscape:window-maximized="1"
     inkscape:current-layer="g315"><sodipodi:guide
       position="-166.57094,80.935712"
       orientation="0,-1"
       id="guide314"
       inkscape:locked="false" /><sodipodi:guide
       position="255.99216,19.884503"
       orientation="1,0"
       id="guide315"
       inkscape:locked="false" /></sodipodi:namedview><g
     style="fill:none"
     id="g315"><path
       d="m 58.07,0 h -4.84 v 4.84 h 4.84 z"
       fill="#000000"
       id="path1" /><path
       d="M 62.9,0 H 58.06 V 4.84 H 62.9 Z"
       fill="#000000"
       id="path2" /><path
       d="m 72.58,0 h -4.84 v 4.84 h 4.84 z"
       fill="#000000"
       id="path3" /><path
       d="m 77.42,0 h -4.84 v 4.84 h 4.84 z"
       fill="#000000"
       id="path4" /><path
       d="M 87.1,0 H 82.26 V 4.84 H 87.1 Z"
       fill="#000000"
       id="path5" /><path
       d="M 91.94,0 H 87.1 v 4.84 h 4.84 z"
       fill="#000000"
       id="path6" /><path
       d="m 101.61,0 h -4.84 v 4.84 h 4.84 z"
       fill="#000000"
       id="path7" /><path
       d="m 106.45,0 h -4.84 v 4.84 h 4.84 z"
       fill="#000000"
       id="path8" /><path
       d="m 116.13,0 h -4.84 v 4.84 h 4.84 z"
       fill="#000000"
       id="path9" /><path
       d="m 120.97,0 h -4.84 v 4.84 h 4.84 z"
       fill="#000000"
       id="path10" /><path
       d="m 130.65,0 h -4.84 v 4.84 h 4.84 z"
       fill="#000000"
       id="path11" /><path
       d="m 135.49,0 h -4.84 v 4.84 h 4.84 z"
       fill="#000000"
       id="path12" /><path
       d="m 53.23,4.84 h -4.84 v 4.84 h 4.84 z"
       fill="#000000"
       id="path13" /><path
       d="M 62.9,4.84 H 58.06 V 9.68 H 62.9 Z"
       fill="#000000"
       id="path14" /><path
       d="M 67.74,4.84 H 62.9 v 4.84 h 4.84 z"
       fill="#000000"
       id="path15" /><path
       d="m 77.42,4.84 h -4.84 v 4.84 h 4.84 z"
       fill="#000000"
       id="path16" /><path
       d="m 82.26,4.84 h -4.84 v 4.84 h 4.84 z"
       fill="#000000"
       id="path17" /><path
       d="M 91.94,4.84 H 87.1 v 4.84 h 4.84 z"
       fill="#000000"
       id="path18" /><path
       d="m 96.78,4.84 h -4.84 v 4.84 h 4.84 z"
       fill="#000000"
       id="path19" /><path
       d="m 106.45,4.84 h -4.84 v 4.84 h 4.84 z"
       fill="#000000"
       id="path20" /><path
       d="m 111.29,4.84 h -4.84 v 4.84 h 4.84 z"
       fill="#000000"
       id="path21" /><path
       d="m 120.97,4.84 h -4.84 v 4.84 h 4.84 z"
       fill="#000000"
       id="path22" /><path
       d="m 125.81,4.84 h -4.84 v 4.84 h 4.84 z"
       fill="#000000"
       id="path23" /><path
       d="m 135.49,4.84 h -4.84 v 4.84 h 4.84 z"
       fill="#000000"
       id="path24" /><path
       d="m 140.32,4.84 h -4.84 v 4.84 h 4.84 z"
       fill="#000000"
       id="path25" /><path
       d="m 145.16,4.84 h -4.84 v 4.84 h 4.84 z"
       fill="#000000"
       id="path26" /><path
       d="M 48.39,9.67999 H 43.55 V 14.52 h 4.84 z"
       fill="#000000"
       id="path27" /><path
       d="M 58.07,9.67999 H 53.23 V 14.52 h 4.84 z"
       fill="#000000"
       id="path28" /><path
       d="M 72.58,9.67999 H 67.74 V 14.52 h 4.84 z"
       fill="#000000"
       id="path29" /><path
       d="M 87.1,9.67999 H 82.26 V 14.52 h 4.84 z"
       fill="#000000"
       id="path30" /><path
       d="M 101.61,9.67999 H 96.77 V 14.52 h 4.84 z"
       fill="#000000"
       id="path31" /><path
       d="m 111.29,9.67999 h -4.84 V 14.52 h 4.84 z"
       fill="#000000"
       id="path32" /><path
       d="m 116.13,9.67999 h -4.84 V 14.52 h 4.84 z"
       fill="#000000"
       id="path33" /><path
       d="m 120.97,9.67999 h -4.84 V 14.52 h 4.84 z"
       fill="#000000"
       id="path34" /><path
       d="m 130.65,9.67999 h -4.84 V 14.52 h 4.84 z"
       fill="#000000"
       id="path35" /><path
       d="m 145.16,9.67999 h -4.84 V 14.52 h 4.84 z"
       fill="#000000"
       id="path36" /><path
       d="m 150,9.67999 h -4.84 V 14.52 H 150 Z"
       fill="#000000"
       id="path37" /><path
       d="m 48.39,14.52 h -4.84 v 4.84 h 4.84 z"
       fill="#000000"
       id="path38" /><path
       d="m 140.32,14.52 h -4.84 v 4.84 h 4.84 z"
       fill="#000000"
       id="path39" /><path
       d="M 154.84,14.52 H 150 v 4.84 h 4.84 z"
       fill="#000000"
       id="path40" /><path
       d="m 43.55,19.35 h -4.84 v 4.84 h 4.84 z"
       fill="#000000"
       id="path41" /><path
       d="m 140.32,19.35 h -4.84 v 4.84 h 4.84 z"
       fill="#000000"
       id="path42" /><path
       d="M 154.84,19.35 H 150 v 4.84 h 4.84 z"
       fill="#000000"
       id="path43" /><path
       d="m 43.55,24.19 h -4.84 v 4.84 h 4.84 z"
       fill="#000000"
       id="path44" /><path
       d="m 135.49,24.19 h -4.84 v 4.84 h 4.84 z"
       fill="#000000"
       id="path45" /><path
       d="M 154.84,24.19 H 150 v 4.84 h 4.84 z"
       fill="#000000"
       id="path46" /><path
       d="m 38.71,29.03 h -4.84 v 4.84 h 4.84 z"
       fill="#000000"
       id="path47" /><path
       d="m 135.49,29.03 h -4.84 v 4.84 h 4.84 z"
       fill="#000000"
       id="path48" /><path
       d="m 135.49,33.87 h -4.84 v 4.84 h 4.84 z"
       fill="#000000"
       id="path49" /><path
       d="M 154.84,29.03 H 150 v 4.84 h 4.84 z"
       fill="#000000"
       id="path50" /><path
       d="m 38.71,33.87 h -4.84 v 4.84 h 4.84 z"
       fill="#000000"
       id="path51" /><path
       d="m 130.65,33.87 h -4.84 v 4.84 h 4.84 z"
       fill="#000000"
       id="path52" /><path
       d="M 154.84,33.87 H 150 v 4.84 h 4.84 z"
       fill="#000000"
       id="path53" /><path
       d="m 33.87,38.71 h -4.84 v 4.84 h 4.84 z"
       fill="#000000"
       id="path54" /><path
       d="m 130.65,38.71 h -4.84 v 4.84 h 4.84 z"
       fill="#000000"
       id="path55" /><path
       d="M 154.84,38.71 H 150 v 4.84 h 4.84 z"
       fill="#000000"
       id="path56" /><path
       d="m 33.87,43.55 h -4.84 v 4.84 h 4.84 z"
       fill="#000000"
       id="path57" /><path
       d="m 125.81,43.55 h -4.84 v 4.84 h 4.84 z"
       fill="#000000"
       id="path58" /><path
       d="m 125.81,48.39 h -4.84 v 4.84 h 4.84 z"
       fill="#000000"
       id="path59" /><path
       d="M 154.84,43.55 H 150 v 4.84 h 4.84 z"
       fill="#000000"
       id="path60" /><path
       d="m 29.03,48.39 h -4.84 v 4.84 h 4.84 z"
       fill="#000000"
       id="path61" /><path
       d="m 125.81,62.9 h -4.84 v 4.84 h 4.84 z"
       fill="#000000"
       id="path62" /><path
       d="m 120.97,62.9 h -4.84 v 4.84 h 4.84 z"
       fill="#000000"
       id="path63" /><path
       d="m 130.65,62.9 h -4.84 v 4.84 h 4.84 z"
       fill="#000000"
       id="path64" /><path
       d="m 135.49,62.9 h -4.84 v 4.84 h 4.84 z"
       fill="#000000"
       id="path65" /><path
       d="m 135.49,43.55 h -4.84 v 4.84 h 4.84 z"
       fill="#000000"
       id="path66" /><path
       d="m 130.65,43.55 h -4.84 v 4.84 h 4.84 z"
       fill="#000000"
       id="path67" /><path
       d="M 154.84,48.39 H 150 v 4.84 h 4.84 z"
       fill="#000000"
       id="path68" /><path
       d="m 29.03,53.23 h -4.84 v 4.84 h 4.84 z"
       fill="#000000"
       id="path69" /><path
       d="m 120.97,53.23 h -4.84 v 4.84 h 4.84 z"
       fill="#000000"
       id="path70" /><path
       d="M 154.84,53.23 H 150 v 4.84 h 4.84 z"
       fill="#000000"
       id="path71" /><path
       d="m 24.19,58.06 h -4.84 v 4.84 h 4.84 z"
       fill="#000000"
       id="path72" /><path
       d="m 120.97,58.06 h -4.84 v 4.84 h 4.84 z"
       fill="#000000"
       id="path73" /><path
       d="M 154.84,58.06 H 150 v 4.84 h 4.84 z"
       fill="#000000"
       id="path74" /><path
       d="m 24.19,62.9 h -4.84 v 4.84 h 4.84 z"
       fill="#000000"
       id="path75" /><path
       d="m 116.13,62.9 h -4.84 v 4.84 h 4.84 z"
       fill="#000000"
       id="path76" /><path
       d="M 154.84,62.9 H 150 v 4.84 h 4.84 z"
       fill="#000000"
       id="path77" /><path
       d="m 19.36,67.74 h -4.84 v 4.84 h 4.84 z"
       fill="#000000"
       id="path78" /><path
       d="m 116.13,67.74 h -4.84 v 4.84 h 4.84 z"
       fill="#000000"
       id="path79" /><path
       d="m 116.13,82.26 h -4.84 v 4.84 h 4.84 z"
       fill="#000000"
       id="path80" /><path
       d="m 111.29,82.26 h -4.84 v 4.84 h 4.84 z"
       fill="#000000"
       id="path81" /><path
       d="m 120.97,82.26 h -4.84 v 4.84 h 4.84 z"
       fill="#000000"
       id="path82" /><path
       d="m 125.81,82.26 h -4.84 v 4.84 h 4.84 z"
       fill="#000000"
       id="path83" /><path
       d="m 130.65,82.26 h -4.84 v 4.84 h 4.84 z"
       fill="#000000"
       id="path84" /><path
       d="m 135.49,82.26 h -4.84 v 4.84 h 4.84 z"
       fill="#000000"
       id="path85" /><path
       d="M 154.84,67.74 H 150 v 4.84 h 4.84 z"
       fill="#000000"
       id="path86" /><path
       d="m 19.36,72.58 h -4.84 v 4.84 h 4.84 z"
       fill="#000000"
       id="path87" /><path
       d="m 111.29,72.58 h -4.84 v 4.84 h 4.84 z"
       fill="#000000"
       id="path88" /><path
       d="m 87.1,43.55 h -4.84 v 4.84 h 4.84 z"
       fill="#000000"
       id="path89" /><path
       d="m 82.26,43.55 h -4.84 v 4.84 h 4.84 z"
       fill="#000000"
       id="path90" /><path
       d="m 77.42,43.55 h -4.84 v 4.84 h 4.84 z"
       fill="#000000"
       id="path91" /><path
       d="m 72.58,43.55 h -4.84 v 4.84 h 4.84 z"
       fill="#000000"
       id="path92" /><path
       d="M 67.74,43.55 H 62.9 v 4.84 h 4.84 z"
       fill="#000000"
       id="path93" /><path
       d="m 62.9,43.55 h -4.84 v 4.84 h 4.84 z"
       fill="#000000"
       id="path94" /><path
       d="m 58.07,43.55 h -4.84 v 4.84 h 4.84 z"
       fill="#000000"
       id="path95" /><path
       d="m 53.23,43.55 h -4.84 v 4.84 h 4.84 z"
       fill="#000000"
       id="path96" /><path
       d="M 91.94,43.55 H 87.1 v 4.84 h 4.84 z"
       fill="#000000"
       id="path97" /><path
       d="m 96.78,43.55 h -4.84 v 4.84 h 4.84 z"
       fill="#000000"
       id="path98" /><path
       d="m 87.1,62.9 h -4.84 v 4.84 h 4.84 z"
       fill="#000000"
       id="path99" /><path
       d="m 82.26,62.9 h -4.84 v 4.84 h 4.84 z"
       fill="#000000"
       id="path100" /><path
       d="m 77.42,62.9 h -4.84 v 4.84 h 4.84 z"
       fill="#000000"
       id="path101" /><path
       d="m 72.58,62.9 h -4.84 v 4.84 h 4.84 z"
       fill="#000000"
       id="path102" /><path
       d="M 67.74,62.9 H 62.9 v 4.84 h 4.84 z"
       fill="#000000"
       id="path103" /><path
       d="m 62.9,62.9 h -4.84 v 4.84 h 4.84 z"
       fill="#000000"
       id="path104" /><path
       d="m 58.07,62.9 h -4.84 v 4.84 h 4.84 z"
       fill="#000000"
       id="path105" /><path
       d="m 53.23,62.9 h -4.84 v 4.84 h 4.84 z"
       fill="#000000"
       id="path106" /><path
       d="m 48.39,62.9 h -4.84 v 4.84 h 4.84 z"
       fill="#000000"
       id="path107" /><path
       d="m 43.55,62.9 h -4.84 v 4.84 h 4.84 z"
       fill="#000000"
       id="path108" /><path
       d="M 91.94,62.9 H 87.1 v 4.84 h 4.84 z"
       fill="#000000"
       id="path109" /><path
       d="M 154.84,72.58 H 150 v 4.84 h 4.84 z"
       fill="#000000"
       id="path110" /><path
       d="M 14.52,77.42 H 9.67999 v 4.84 H 14.52 Z"
       fill="#000000"
       id="path111" /><path
       d="m 111.29,77.42 h -4.84 v 4.84 h 4.84 z"
       fill="#000000"
       id="path112" /><path
       d="M 154.84,77.42 H 150 v 4.84 h 4.84 z"
       fill="#000000"
       id="path113" /><path
       d="M 14.52,82.26 H 9.67999 V 87.1 H 14.52 Z"
       fill="#000000"
       id="path114" /><path
       d="M 9.68,87.1 H 4.84 v 4.84 h 4.84 z"
       fill="#000000"
       id="path115" /><path
       d="M 9.68,91.94 H 4.84 v 4.84 h 4.84 z"
       fill="#000000"
       id="path116" /><path
       d="m 106.45,82.26 h -4.84 v 4.84 h 4.84 z"
       fill="#000000"
       id="path117" /><path
       d="M 154.84,82.26 H 150 v 4.84 h 4.84 z"
       fill="#000000"
       id="path118" /><path
       d="m 106.45,87.1 h -4.84 v 4.84 h 4.84 z"
       fill="#000000"
       id="path119" /><path
       d="m 101.61,91.94 h -4.84 v 4.84 h 4.84 z"
       fill="#000000"
       id="path120" /><path
       d="m 101.61,96.77 h -4.84 v 4.84 h 4.84 z"
       fill="#000000"
       id="path121" /><path
       d="m 101.61,101.61 h -4.84 v 4.84 h 4.84 z"
       fill="#000000"
       id="path122" /><path
       d="m 135.49,14.52 h -4.84 v 4.84 h 4.84 z"
       fill="#000000"
       id="path123" /><path
       d="m 135.49,19.35 h -4.84 v 4.84 h 4.84 z"
       fill="#000000"
       id="path124" /><path
       d="m 130.65,24.19 h -4.84 v 4.84 h 4.84 z"
       fill="#000000"
       id="path125" /><path
       d="m 130.65,29.03 h -4.84 v 4.84 h 4.84 z"
       fill="#000000"
       id="path126" /><path
       d="m 130.65,33.87 h -4.84 v 4.84 h 4.84 z"
       fill="#000000"
       id="path127" /><path
       d="m 125.81,33.87 h -4.84 v 4.84 h 4.84 z"
       fill="#000000"
       id="path128" /><path
       d="m 125.81,38.71 h -4.84 v 4.84 h 4.84 z"
       fill="#000000"
       id="path129" /><path
       d="m 120.97,43.55 h -4.84 v 4.84 h 4.84 z"
       fill="#000000"
       id="path130" /><path
       d="m 120.97,48.39 h -4.84 v 4.84 h 4.84 z"
       fill="#000000"
       id="path131" /><path
       d="m 116.13,53.23 h -4.84 v 4.84 h 4.84 z"
       fill="#000000"
       id="path132" /><path
       d="m 116.13,58.06 h -4.84 v 4.84 h 4.84 z"
       fill="#000000"
       id="path133" /><path
       d="m 111.29,62.9 h -4.84 v 4.84 h 4.84 z"
       fill="#000000"
       id="path134" /><path
       d="m 111.29,67.74 h -4.84 v 4.84 h 4.84 z"
       fill="#000000"
       id="path135" /><path
       d="m 106.45,72.58 h -4.84 v 4.84 h 4.84 z"
       fill="#000000"
       id="path136" /><path
       d="m 106.45,77.42 h -4.84 v 4.84 h 4.84 z"
       fill="#000000"
       id="path137" /><path
       d="m 101.61,82.26 h -4.84 v 4.84 h 4.84 z"
       fill="#000000"
       id="path138" /><path
       d="m 101.61,87.1 h -4.84 v 4.84 h 4.84 z"
       fill="#000000"
       id="path139" /><path
       d="m 96.78,91.94 h -4.84 v 4.84 h 4.84 z"
       fill="#000000"
       id="path140" /><path
       d="m 96.78,96.77 h -4.84 v 4.84 h 4.84 z"
       fill="#000000"
       id="path141" /><path
       d="m 96.78,101.61 h -4.84 v 4.84 h 4.84 z"
       fill="#000000"
       id="path142" /><path
       d="m 96.78,106.45 h -4.84 v 4.84 h 4.84 z"
       fill="#000000"
       id="path143" /><path
       d="M 91.94,106.45 H 87.1 v 4.84 h 4.84 z"
       fill="#000000"
       id="path144" /><path
       d="m 87.1,106.45 h -4.84 v 4.84 h 4.84 z"
       fill="#000000"
       id="path145" /><path
       d="m 82.26,106.45 h -4.84 v 4.84 h 4.84 z"
       fill="#000000"
       id="path146" /><path
       d="m 77.42,106.45 h -4.84 v 4.84 h 4.84 z"
       fill="#000000"
       id="path147" /><path
       d="m 72.58,106.45 h -4.84 v 4.84 h 4.84 z"
       fill="#000000"
       id="path148" /><path
       d="M 67.74,106.45 H 62.9 v 4.84 h 4.84 z"
       fill="#000000"
       id="path149" /><path
       d="m 62.9,106.45 h -4.84 v 4.84 h 4.84 z"
       fill="#000000"
       id="path150" /><path
       d="m 58.07,106.45 h -4.84 v 4.84 h 4.84 z"
       fill="#000000"
       id="path151" /><path
       d="m 53.23,106.45 h -4.84 v 4.84 h 4.84 z"
       fill="#000000"
       id="path152" /><path
       d="m 48.39,106.45 h -4.84 v 4.84 h 4.84 z"
       fill="#000000"
       id="path153" /><path
       d="m 43.55,106.45 h -4.84 v 4.84 h 4.84 z"
       fill="#000000"
       id="path154" /><path
       d="m 38.71,106.45 h -4.84 v 4.84 h 4.84 z"
       fill="#000000"
       id="path155" /><path
       d="m 33.87,106.45 h -4.84 v 4.84 h 4.84 z"
       fill="#000000"
       id="path156" /><path
       d="m 29.03,106.45 h -4.84 v 4.84 h 4.84 z"
       fill="#000000"
       id="path157" /><path
       d="m 24.19,106.45 h -4.84 v 4.84 h 4.84 z"
       fill="#000000"
       id="path158" /><path
       d="m 19.36,106.45 h -4.84 v 4.84 h 4.84 z"
       fill="#000000"
       id="path159" /><path
       d="M 14.52,106.45 H 9.67999 v 4.84 H 14.52 Z"
       fill="#000000"
       id="path160" /><path
       d="M 91.94,101.61 H 87.1 v 4.84 h 4.84 z"
       fill="#000000"
       id="path161" /><path
       d="m 87.1,101.61 h -4.84 v 4.84 h 4.84 z"
       fill="#000000"
       id="path162" /><path
       d="m 82.26,101.61 h -4.84 v 4.84 h 4.84 z"
       fill="#000000"
       id="path163" /><path
       d="m 77.42,101.61 h -4.84 v 4.84 h 4.84 z"
       fill="#000000"
       id="path164" /><path
       d="m 72.58,101.61 h -4.84 v 4.84 h 4.84 z"
       fill="#000000"
       id="path165" /><path
       d="M 67.74,101.61 H 62.9 v 4.84 h 4.84 z"
       fill="#000000"
       id="path166" /><path
       d="m 62.9,101.61 h -4.84 v 4.84 h 4.84 z"
       fill="#000000"
       id="path167" /><path
       d="m 58.07,101.61 h -4.84 v 4.84 h 4.84 z"
       fill="#000000"
       id="path168" /><path
       d="m 53.23,101.61 h -4.84 v 4.84 h 4.84 z"
       fill="#000000"
       id="path169" /><path
       d="m 48.39,101.61 h -4.84 v 4.84 h 4.84 z"
       fill="#000000"
       id="path170" /><path
       d="m 43.55,101.61 h -4.84 v 4.84 h 4.84 z"
       fill="#000000"
       id="path171" /><path
       d="m 38.71,101.61 h -4.84 v 4.84 h 4.84 z"
       fill="#000000"
       id="path172" /><path
       d="m 33.87,101.61 h -4.84 v 4.84 h 4.84 z"
       fill="#000000"
       id="path173" /><path
       d="m 29.03,101.61 h -4.84 v 4.84 h 4.84 z"
       fill="#000000"
       id="path174" /><path
       d="m 24.19,101.61 h -4.84 v 4.84 h 4.84 z"
       fill="#000000"
       id="path175" /><path
       d="m 19.36,101.61 h -4.84 v 4.84 h 4.84 z"
       fill="#000000"
       id="path176" /><path
       d="M 14.52,101.61 H 9.67999 v 4.84 H 14.52 Z"
       fill="#000000"
       id="path177" /><path
       d="M 9.68,96.77 H 4.84 v 4.84 h 4.84 z"
       fill="#000000"
       id="path178" /><path
       d="M 9.68,101.61 H 4.84 v 4.84 h 4.84 z"
       fill="#000000"
       id="path179" /><path
       d="M 43.55,9.67999 H 38.71 V 14.52 h 4.84 z"
       fill="#000000"
       id="path180" /><path
       d="m 43.55,14.52 h -4.84 v 4.84 h 4.84 z"
       fill="#000000"
       id="path181" /><path
       d="m 38.71,19.35 h -4.84 v 4.84 h 4.84 z"
       fill="#000000"
       id="path182" /><path
       d="m 38.71,24.19 h -4.84 v 4.84 h 4.84 z"
       fill="#000000"
       id="path183" /><path
       d="m 33.87,29.03 h -4.84 v 4.84 h 4.84 z"
       fill="#000000"
       id="path184" /><path
       d="m 33.87,33.87 h -4.84 v 4.84 h 4.84 z"
       fill="#000000"
       id="path185" /><path
       d="m 29.03,38.71 h -4.84 v 4.84 h 4.84 z"
       fill="#000000"
       id="path186" /><path
       d="m 29.03,43.55 h -4.84 v 4.84 h 4.84 z"
       fill="#000000"
       id="path187" /><path
       d="m 24.19,48.39 h -4.84 v 4.84 h 4.84 z"
       fill="#000000"
       id="path188" /><path
       d="m 24.19,53.23 h -4.84 v 4.84 h 4.84 z"
       fill="#000000"
       id="path189" /><path
       d="m 19.36,58.06 h -4.84 v 4.84 h 4.84 z"
       fill="#000000"
       id="path190" /><path
       d="m 19.36,62.9 h -4.84 v 4.84 h 4.84 z"
       fill="#000000"
       id="path191" /><path
       d="M 14.52,67.74 H 9.67999 v 4.84 H 14.52 Z"
       fill="#000000"
       id="path192" /><path
       d="M 14.52,72.58 H 9.67999 v 4.84 H 14.52 Z"
       fill="#000000"
       id="path193" /><path
       d="M 9.68,77.42 H 4.84 v 4.84 h 4.84 z"
       fill="#000000"
       id="path194" /><path
       d="M 9.68,82.26 H 4.84 v 4.84 h 4.84 z"
       fill="#000000"
       id="path195" /><path
       d="M 4.84,87.1 H 0 v 4.84 h 4.84 z"
       fill="#000000"
       id="path196" /><path
       d="M 4.84,91.94 H 0 v 4.84 h 4.84 z"
       fill="#000000"
       id="path197" /><path
       d="M 4.84,96.77 H 0 v 4.84 h 4.84 z"
       fill="#000000"
       id="path198" /><path
       d="M 4.84,101.61 H 0 v 4.84 h 4.84 z"
       fill="#000000"
       id="path199" /><path
       d="m 111.29,101.61 h -4.84 v 4.84 h 4.84 z"
       fill="#000000"
       id="path200" /><path
       d="m 106.45,101.61 h -4.84 v 4.84 h 4.84 z"
       fill="#000000"
       id="path201" /><path
       d="m 116.13,101.61 h -4.84 v 4.84 h 4.84 z"
       fill="#000000"
       id="path202" /><path
       d="m 120.97,101.61 h -4.84 v 4.84 h 4.84 z"
       fill="#000000"
       id="path203" /><path
       d="m 125.81,101.61 h -4.84 v 4.84 h 4.84 z"
       fill="#000000"
       id="path204" /><path
       d="m 130.65,101.61 h -4.84 v 4.84 h 4.84 z"
       fill="#000000"
       id="path205" /><path
       d="m 135.49,101.61 h -4.84 v 4.84 h 4.84 z"
       fill="#000000"
       id="path206" /><path
       d="m 135.49,120.97 h -4.84 v 4.84 h 4.84 z"
       fill="#000000"
       id="path207" /><path
       d="m 130.65,120.97 h -4.84 v 4.84 h 4.84 z"
       fill="#000000"
       id="path208" /><path
       d="m 125.81,120.97 h -4.84 v 4.84 h 4.84 z"
       fill="#000000"
       id="path209" /><path
       d="m 120.97,120.97 h -4.84 v 4.84 h 4.84 z"
       fill="#000000"
       id="path210" /><path
       d="m 116.13,120.97 h -4.84 v 4.84 h 4.84 z"
       fill="#000000"
       id="path211" /><path
       d="m 111.29,120.97 h -4.84 v 4.84 h 4.84 z"
       fill="#000000"
       id="path212" /><path
       d="m 106.45,120.97 h -4.84 v 4.84 h 4.84 z"
       fill="#000000"
       id="path213" /><path
       d="m 101.61,120.97 h -4.84 v 4.84 h 4.84 z"
       fill="#000000"
       id="path214" /><path
       d="m 96.78,120.97 h -4.84 v 4.84 h 4.84 z"
       fill="#000000"
       id="path215" /><path
       d="M 91.94,120.97 H 87.1 v 4.84 h 4.84 z"
       fill="#000000"
       id="path216" /><path
       d="m 87.1,120.97 h -4.84 v 4.84 h 4.84 z"
       fill="#000000"
       id="path217" /><path
       d="m 82.26,120.97 h -4.84 v 4.84 h 4.84 z"
       fill="#000000"
       id="path218" /><path
       d="m 77.42,120.97 h -4.84 v 4.84 h 4.84 z"
       fill="#000000"
       id="path219" /><path
       d="m 72.58,120.97 h -4.84 v 4.84 h 4.84 z"
       fill="#000000"
       id="path220" /><path
       d="M 67.74,120.97 H 62.9 v 4.84 h 4.84 z"
       fill="#000000"
       id="path221" /><path
       d="m 62.9,120.97 h -4.84 v 4.84 h 4.84 z"
       fill="#000000"
       id="path222" /><path
       d="m 58.07,120.97 h -4.84 v 4.84 h 4.84 z"
       fill="#000000"
       id="path223" /><path
       d="M 154.84,87.1 H 150 v 4.84 h 4.84 z"
       fill="#000000"
       id="path224" /><path
       d="M 154.84,91.94 H 150 v 4.84 h 4.84 z"
       fill="#000000"
       id="path225" /><path
       d="M 154.84,96.77 H 150 v 4.84 h 4.84 z"
       fill="#000000"
       id="path226" /><path
       d="M 154.84,101.61 H 150 v 4.84 h 4.84 z"
       fill="#000000"
       id="path227" /><path
       d="M 154.84,106.45 H 150 v 4.84 h 4.84 z"
       fill="#000000"
       id="path228" /><path
       d="m 53.23,111.29 h -4.84 v 4.84 h 4.84 z"
       fill="#000000"
       id="path229" /><path
       d="M 154.84,111.29 H 150 v 4.84 h 4.84 z"
       fill="#000000"
       id="path230" /><path
       d="m 53.23,116.13 h -4.84 v 4.84 h 4.84 z"
       fill="#000000"
       id="path231" /><path
       d="M 154.84,116.13 H 150 v 4.84 h 4.84 z"
       fill="#000000"
       id="path232" /><path
       d="m 53.23,120.97 h -4.84 v 4.84 h 4.84 z"
       fill="#000000"
       id="path233" /><path
       d="M 154.84,120.97 H 150 v 4.84 h 4.84 z"
       fill="#000000"
       id="path234" /><path
       d="m 53.23,125.81 h -4.84 v 4.84 h 4.84 z"
       fill="#000000"
       id="path235" /><path
       d="m 48.39,111.29 h -4.84 v 4.84 h 4.84 z"
       fill="#000000"
       id="path236" /><path
       d="m 48.39,116.13 h -4.84 v 4.84 h 4.84 z"
       fill="#000000"
       id="path237" /><path
       d="m 48.39,120.97 h -4.84 v 4.84 h 4.84 z"
       fill="#000000"
       id="path238" /><path
       d="m 48.39,125.81 h -4.84 v 4.84 h 4.84 z"
       fill="#000000"
       id="path239" /><path
       d="M 154.84,125.81 H 150 v 4.84 h 4.84 z"
       fill="#000000"
       id="path240" /><path
       d="M 154.84,130.65 H 150 v 4.84 h 4.84 z"
       fill="#000000"
       id="path241" /><path
       d="m 159.68,14.52 h -4.84 v 4.84 h 4.84 z"
       fill="#000000"
       id="path242" /><path
       d="m 159.68,19.35 h -4.84 v 4.84 h 4.84 z"
       fill="#000000"
       id="path243" /><path
       d="m 159.68,24.19 h -4.84 v 4.84 h 4.84 z"
       fill="#000000"
       id="path244" /><path
       d="m 159.68,29.03 h -4.84 v 4.84 h 4.84 z"
       fill="#000000"
       id="path245" /><path
       d="m 159.68,33.87 h -4.84 v 4.84 h 4.84 z"
       fill="#000000"
       id="path246" /><path
       d="m 159.68,38.71 h -4.84 v 4.84 h 4.84 z"
       fill="#000000"
       id="path247" /><path
       d="m 159.68,43.55 h -4.84 v 4.84 h 4.84 z"
       fill="#000000"
       id="path248" /><path
       d="m 159.68,48.39 h -4.84 v 4.84 h 4.84 z"
       fill="#000000"
       id="path249" /><path
       d="m 159.68,53.23 h -4.84 v 4.84 h 4.84 z"
       fill="#000000"
       id="path250" /><path
       d="m 159.68,58.06 h -4.84 v 4.84 h 4.84 z"
       fill="#000000"
       id="path251" /><path
       d="m 159.68,62.9 h -4.84 v 4.84 h 4.84 z"
       fill="#000000"
       id="path252" /><path
       d="m 159.68,67.74 h -4.84 v 4.84 h 4.84 z"
       fill="#000000"
       id="path253" /><path
       d="m 159.68,72.58 h -4.84 v 4.84 h 4.84 z"
       fill="#000000"
       id="path254" /><path
       d="m 159.68,77.42 h -4.84 v 4.84 h 4.84 z"
       fill="#000000"
       id="path255" /><path
       d="m 159.68,82.26 h -4.84 v 4.84 h 4.84 z"
       fill="#000000"
       id="path256" /><path
       d="m 159.68,87.1 h -4.84 v 4.84 h 4.84 z"
       fill="#000000"
       id="path257" /><path
       d="m 159.68,91.94 h -4.84 v 4.84 h 4.84 z"
       fill="#000000"
       id="path258" /><path
       d="m 159.68,96.77 h -4.84 v 4.84 h 4.84 z"
       fill="#000000"
       id="path259" /><path
       d="m 159.68,101.61 h -4.84 v 4.84 h 4.84 z"
       fill="#000000"
       id="path260" /><path
       d="m 159.68,106.45 h -4.84 v 4.84 h 4.84 z"
       fill="#000000"
       id="path261" /><path
       d="m 159.68,111.29 h -4.84 v 4.84 h 4.84 z"
       fill="#000000"
       id="path262" /><path
       d="m 159.68,116.13 h -4.84 v 4.84 h 4.84 z"
       fill="#000000"
       id="path263" /><path
       d="m 159.68,120.97 h -4.84 v 4.84 h 4.84 z"
       fill="#000000"
       id="path264" /><path
       d="m 159.68,125.81 h -4.84 v 4.84 h 4.84 z"
       fill="#000000"
       id="path265" /><path
       d="m 159.68,130.65 h -4.84 v 4.84 h 4.84 z"
       fill="#000000"
       id="path266" /><path
       d="m 62.9,135.48 h -4.84 v 4.84 h 4.84 z"
       fill="#000000"
       id="path267" /><path
       d="m 53.23,130.65 h -4.84 v 4.84 h 4.84 z"
       fill="#000000"
       id="path268" /><path
       d="m 48.39,130.65 h -4.84 v 4.84 h 4.84 z"
       fill="#000000"
       id="path269" /><path
       d="m 58.07,135.48 h -4.84 v 4.84 h 4.84 z"
       fill="#000000"
       id="path270" /><path
       d="m 62.9,140.32 h -4.84 v 4.84 h 4.84 z"
       fill="#000000"
       id="path271" /><path
       d="m 58.07,140.32 h -4.84 v 4.84 h 4.84 z"
       fill="#000000"
       id="path272" /><path
       d="m 150,135.48 h -4.84 v 4.84 H 150 Z"
       fill="#000000"
       id="path273" /><path
       d="m 150,140.32 h -4.84 v 4.84 H 150 Z"
       fill="#000000"
       id="path274" /><path
       d="M 154.84,135.48 H 150 v 4.84 h 4.84 z"
       fill="#000000"
       id="path275" /><path
       d="M 154.84,140.32 H 150 v 4.84 h 4.84 z"
       fill="#000000"
       id="path276" /><path
       d="M 67.74,140.32 H 62.9 v 4.84 h 4.84 z"
       fill="#000000"
       id="path277" /><path
       d="m 72.58,140.32 h -4.84 v 4.84 h 4.84 z"
       fill="#000000"
       id="path278" /><path
       d="m 77.42,140.32 h -4.84 v 4.84 h 4.84 z"
       fill="#000000"
       id="path279" /><path
       d="m 82.26,140.32 h -4.84 v 4.84 h 4.84 z"
       fill="#000000"
       id="path280" /><path
       d="m 87.1,140.32 h -4.84 v 4.84 h 4.84 z"
       fill="#000000"
       id="path281" /><path
       d="M 91.94,140.32 H 87.1 v 4.84 h 4.84 z"
       fill="#000000"
       id="path282" /><path
       d="m 96.78,140.32 h -4.84 v 4.84 h 4.84 z"
       fill="#000000"
       id="path283" /><path
       d="m 101.61,140.32 h -4.84 v 4.84 h 4.84 z"
       fill="#000000"
       id="path284" /><path
       d="m 106.45,140.32 h -4.84 v 4.84 h 4.84 z"
       fill="#000000"
       id="path285" /><path
       d="m 111.29,140.32 h -4.84 v 4.84 h 4.84 z"
       fill="#000000"
       id="path286" /><path
       d="m 116.13,140.32 h -4.84 v 4.84 h 4.84 z"
       fill="#000000"
       id="path287" /><path
       d="m 120.97,140.32 h -4.84 v 4.84 h 4.84 z"
       fill="#000000"
       id="path288" /><path
       d="m 125.81,140.32 h -4.84 v 4.84 h 4.84 z"
       fill="#000000"
       id="path289" /><path
       d="m 130.65,140.32 h -4.84 v 4.84 h 4.84 z"
       fill="#000000"
       id="path290" /><path
       d="m 135.49,140.32 h -4.84 v 4.84 h 4.84 z"
       fill="#000000"
       id="path291" /><path
       d="m 140.32,140.32 h -4.84 v 4.84 h 4.84 z"
       fill="#000000"
       id="path292" /><path
       d="m 145.16,140.32 h -4.84 v 4.84 h 4.84 z"
       fill="#000000"
       id="path293" /><path
       d="M 67.74,145.16 H 62.9 V 150 h 4.84 z"
       fill="#000000"
       id="path294" /><path
       d="M 72.58,145.16 H 67.74 V 150 h 4.84 z"
       fill="#000000"
       id="path295" /><path
       d="M 77.42,145.16 H 72.58 V 150 h 4.84 z"
       fill="#000000"
       id="path296" /><path
       d="M 82.26,145.16 H 77.42 V 150 h 4.84 z"
       fill="#000000"
       id="path297" /><path
       d="M 87.1,145.16 H 82.26 V 150 h 4.84 z"
       fill="#000000"
       id="path298" /><path
       d="M 91.94,145.16 H 87.1 V 150 h 4.84 z"
       fill="#000000"
       id="path299" /><path
       d="M 96.78,145.16 H 91.94 V 150 h 4.84 z"
       fill="#000000"
       id="path300" /><path
       d="M 101.61,145.16 H 96.77 V 150 h 4.84 z"
       fill="#000000"
       id="path301" /><path
       d="m 106.45,145.16 h -4.84 V 150 h 4.84 z"
       fill="#000000"
       id="path302" /><path
       d="m 111.29,145.16 h -4.84 V 150 h 4.84 z"
       fill="#000000"
       id="path303" /><path
       d="m 116.13,145.16 h -4.84 V 150 h 4.84 z"
       fill="#000000"
       id="path304" /><path
       d="m 120.97,145.16 h -4.84 V 150 h 4.84 z"
       fill="#000000"
       id="path305" /><path
       d="m 125.81,145.16 h -4.84 V 150 h 4.84 z"
       fill="#000000"
       id="path306" /><path
       d="m 130.65,145.16 h -4.84 V 150 h 4.84 z"
       fill="#000000"
       id="path307" /><path
       d="m 135.49,145.16 h -4.84 V 150 h 4.84 z"
       fill="#000000"
       id="path308" /><path
       d="m 140.32,145.16 h -4.84 V 150 h 4.84 z"
       fill="#000000"
       id="path309" /><path
       d="m 145.16,145.16 h -4.84 V 150 h 4.84 z"
       fill="#000000"
       id="path310" /></g></svg>
